<?xml version="1.0" encoding="UTF-8"?>
<svg id="Layer_1" xmlns="http://www.w3.org/2000/svg" version="1.1" xmlns:xlink="http://www.w3.org/1999/xlink" viewBox="0 0 138 28">
  <!-- Generator: Adobe Illustrator 29.7.1, SVG Export Plug-In . SVG Version: 2.1.1 Build 8)  -->
  <defs>
    <style>
      .st0 {
        fill: #fff;
      }

      .st0, .st1 {
        fill-rule: evenodd;
      }

      .st1 {
        fill: url(#linear-gradient);
      }
    </style>
    <linearGradient id="linear-gradient" x1="-415.34" y1="497.43" x2="-415.34" y2="496.43" gradientTransform="translate(12674.44 13729.51) scale(30.36 -27.6)" gradientUnits="userSpaceOnUse">
      <stop offset="0" stop-color="#ff0368"/>
      <stop offset="1" stop-color="#6703ff"/>
    </linearGradient>
  </defs>
  <path id="lettering" class="st0" d="M34.39,22.4h8.58c.66,0,1.19.54,1.19,1.21v3.18c0,.67-.53,1.21-1.19,1.21h-14.18c-.66,0-1.2-.55-1.19-1.21h0V1.21c0-.67.53-1.21,1.19-1.21h3.14c.66,0,1.19.54,1.19,1.21v19.9c0,.71.57,1.29,1.27,1.29ZM19.97,14c.72.82,1.28,1.77,1.64,2.8.31.88.47,1.82.47,2.8s-.17,1.92-.47,2.8c-.83,2.38-2.68,4.26-5.05,5.12-.86.31-1.79.48-2.76.48H1.19C.53,28,0,27.45,0,26.79h0V1.21C0,.54.53,0,1.19,0h12.61c.97,0,1.9.17,2.76.48,2.37.86,4.22,2.74,5.05,5.12.31.88.47,1.82.47,2.8s-.17,1.92-.47,2.8c-.36,1.03-.91,1.98-1.64,2.8ZM5.52,10.39c0,.44.35.8.79.81,0,0,0,0,0,0h7.49c1.59,0,2.86-1.36,2.75-2.99-.09-1.49-1.38-2.61-2.85-2.61h-7.39c-.44,0-.8.36-.8.8h0v3.99ZM5.52,21.59c0,.44.35.8.79.81,0,0,0,0,0,0h7.49c1.59,0,2.86-1.36,2.75-2.99-.09-1.49-1.38-2.61-2.85-2.61h-7.39c-.44,0-.8.36-.8.8h0s0,3.99,0,3.99ZM93.93,5.6c-1.47,0-2.75,1.12-2.85,2.61-.1,1.63,1.17,2.99,2.75,2.99h5.52c.94,0,1.87.16,2.76.48,2.37.86,4.22,2.74,5.05,5.12.31.88.47,1.82.47,2.8s-.17,1.92-.47,2.8c-.83,2.38-2.68,4.26-5.05,5.12-.86.31-1.79.48-2.76.48h-12.61c-.66,0-1.2-.55-1.19-1.21h0v-3.18c0-.67.53-1.21,1.19-1.21h12.61c1.58,0,2.86-1.36,2.75-2.99-.1-1.49-1.38-2.61-2.85-2.61h-5.43c-.94,0-1.87-.16-2.76-.48-2.37-.86-4.22-2.74-5.05-5.12-.31-.9-.47-1.85-.47-2.8,0-.98.17-1.92.47-2.8.83-2.38,2.68-4.26,5.05-5.12.89-.32,1.82-.48,2.76-.48h9.85c.66,0,1.19.54,1.19,1.21v3.18c0,.67-.53,1.21-1.19,1.21,0,0-9.75,0-9.75,0ZM110.4,1.21c0-.67.53-1.21,1.19-1.21h25.22c.66,0,1.19.54,1.19,1.21v3.18c0,.67-.53,1.21-1.19,1.21h-9.05c-.44,0-.8.36-.8.8,0,0,0,0,0,0v20.38c0,.67-.53,1.21-1.19,1.21h-3.14c-.66,0-1.2-.55-1.19-1.21h0V6.41c0-.44-.35-.8-.79-.81,0,0,0,0,0,0h-9.05c-.66,0-1.2-.55-1.19-1.21h0s0-3.18,0-3.18Z"/>
  <path class="st1" d="M53.09,27.43c-1.35.57-2.92-.33-3.08-1.83-.05-.48.04-.98.3-1.45L63.16,1.2c.6-1.12,2-1.53,3.11-.93.39.21.71.53.93.93l12.84,22.94c.3.53.37,1.11.27,1.65-.26,1.4-1.76,2.17-3.04,1.64-3.83-1.6-7.94-2.43-12.1-2.42-4.28,0-8.36.86-12.09,2.42h0ZM67.87,16.06c-.22-.29-.34-.65-.34-1.02v-2s0-2.68-2.2-4.2c-.04-.03-.1-.04-.15-.04-.05,0-.11.01-.15.04-2.2,1.52-2.2,4.2-2.2,4.2v2c0,.37-.12.73-.34,1.02l-2.36,3.1c-.08.09-.12.2-.12.32v.21c0,.13.1.23.23.23h2.36c.13,0,.23.1.23.23v.11c0,.34.91.61,2.35.61s2.35-.27,2.35-.61v-.11c0-.13.1-.23.23-.23h2.36c.13,0,.23-.1.23-.23v-.21c0-.12-.04-.23-.12-.32,0,0-2.36-3.1-2.36-3.1Z"/>
  <path class="st0" d="M67.87,16.06c-.22-.29-.34-.65-.34-1.02v-2s0-2.68-2.2-4.2c-.04-.03-.1-.04-.15-.04-.05,0-.11.01-.15.04-2.2,1.52-2.2,4.2-2.2,4.2v2c0,.37-.12.73-.34,1.02l-2.36,3.1c-.08.09-.12.2-.12.32v.21c0,.13.1.23.23.23h2.36c.13,0,.23.1.23.23v.11c0,.34.91.61,2.35.61s2.35-.27,2.35-.61v-.11c0-.13.1-.23.23-.23h2.36c.13,0,.23-.1.23-.23v-.21c0-.12-.04-.23-.12-.32l-2.36-3.1h0Z"/>
</svg>