<?xml version="1.0" encoding="UTF-8"?>
<svg id="Layer_1" xmlns="http://www.w3.org/2000/svg" version="1.1" xmlns:xlink="http://www.w3.org/1999/xlink" viewBox="0 0 30.36 27.6">
  <!-- Generator: Adobe Illustrator 29.7.1, SVG Export Plug-In . SVG Version: 2.1.1 Build 8)  -->
  <defs>
    <style>
      .st0 {
        fill: #fff;
      }

      .st0, .st1 {
        fill-rule: evenodd;
      }

      .st1 {
        fill: url(#linear-gradient);
      }
    </style>
    <linearGradient id="linear-gradient" x1="-465.34" y1="497.43" x2="-465.34" y2="496.43" gradientTransform="translate(14142.39 13729.51) scale(30.36 -27.6)" gradientUnits="userSpaceOnUse">
      <stop offset="0" stop-color="#ff0368"/>
      <stop offset="1" stop-color="#6703ff"/>
    </linearGradient>
  </defs>
  <path class="st1" d="M3.09,27.43c-1.35.57-2.92-.33-3.08-1.83-.05-.48.04-.98.3-1.45L13.16,1.2c.6-1.12,2-1.53,3.11-.93.39.21.71.53.93.93l12.84,22.94c.3.53.37,1.11.27,1.65-.26,1.4-1.76,2.17-3.04,1.64-3.83-1.6-7.94-2.43-12.1-2.42-4.28,0-8.36.86-12.09,2.42h0ZM17.87,16.06c-.22-.29-.34-.65-.34-1.02v-2s0-2.68-2.2-4.2c-.04-.03-.1-.04-.15-.04-.05,0-.11.01-.15.04-2.2,1.52-2.2,4.2-2.2,4.2v2c0,.37-.12.73-.34,1.02l-2.36,3.1c-.08.09-.12.2-.12.32v.21c0,.13.1.23.23.23h2.36c.13,0,.23.1.23.23v.11c0,.34.91.61,2.35.61s2.35-.27,2.35-.61v-.11c0-.13.1-.23.23-.23h2.36c.13,0,.23-.1.23-.23v-.21c0-.12-.04-.23-.12-.32,0,0-2.36-3.1-2.36-3.1Z"/>
  <path class="st0" d="M17.87,16.06c-.22-.29-.34-.65-.34-1.02v-2s0-2.68-2.2-4.2c-.04-.03-.1-.04-.15-.04-.05,0-.11.01-.15.04-2.2,1.52-2.2,4.2-2.2,4.2v2c0,.37-.12.73-.34,1.02l-2.36,3.1c-.08.09-.12.2-.12.32v.21c0,.13.1.23.23.23h2.36c.13,0,.23.1.23.23v.11c0,.34.91.61,2.35.61s2.35-.27,2.35-.61v-.11c0-.13.1-.23.23-.23h2.36c.13,0,.23-.1.23-.23v-.21c0-.12-.04-.23-.12-.32l-2.36-3.1h0Z"/>
</svg>