<?xml version="1.0" encoding="UTF-8"?>
<svg id="logosandtypes_com" xmlns="http://www.w3.org/2000/svg" version="1.1" viewBox="0 0 139.41 118.04">
  <!-- Generator: Adobe Illustrator 29.7.1, SVG Export Plug-In . SVG Version: 2.1.1 Build 8)  -->
  <defs>
    <style>
      .st0 {
        fill: none;
      }
    </style>
  </defs>
  <path class="st0" d="M-5.48-17.05h150v150H-5.48V-17.05Z"/>
  <path d="M19.85,60.39c3.37,7.57,4.49,15.26,1.55,22.97-2.82,7.39-8.19,12.62-14.56,17.01-2.12,1.4-3.96,3.19-5.4,5.28-2.8,4.3-1.42,8.61,3.37,10.45,2.92,1.09,6,1.73,9.11,1.88,12.71.65,23.73-4.08,33.64-11.6,15.51-11.77,26.47-28.54,34.33-46.01,0,0-62.04.02-62.04.02Z"/>
  <path d="M74.37.44c-12.68.4-24.22,4.91-33.22,14.42-10.65,11.24-15.67,25.15-20.13,40.29h72.97l10.14-23.29h-34.06c1.81-2.33,4.04-4.18,6.71-4.74,2.74-.55,5.53-.82,8.32-.81,12.95-.06,40.39,0,40.39,0L139.41.05s-43.62-.27-65.04.4h0Z"/>
</svg>