<?xml version="1.0" encoding="UTF-8"?>
<svg id="Layer_1" xmlns="http://www.w3.org/2000/svg" version="1.1" viewBox="0 0 600 600">
  <!-- Generator: Adobe Illustrator 29.8.5, SVG Export Plug-In . SVG Version: 2.1.1 Build 2)  -->
  <defs>
    <style>
      .st0 {
        fill: #fff;
      }
    </style>
  </defs>
  <path d="M175.17,120.98l21.06,2.09c37.09,5.55,72.83,19.79,98.42,47.73,1.41,1.54,3.26,3.76,4.02,5.7,26.32-32.67,66.82-48.89,107.79-54.11l15.69-1.42c6.01.22,12.12-.3,18.12,0,2.09.1,5.27.48,7.71.68,17.15,1.35,34.07,4.9,50.59,9.45l34.32,160.47c-46.56-9.52-94.56-15.68-141.61-5.69-26.59,5.64-54.59,16.79-73.15,37.13l19.68-12.82c51.22-26.95,112.78-24.4,168.36-14.39,13.73,2.47,27.28,5.85,40.81,9.15l-33.55-149.85,10.7,1.37,38.28,165.88c-19.61-5.56-39.48-10.34-59.6-13.84-43.66-7.6-89.11-11.95-132.34.12-17.71,4.95-35.59,13.02-48.32,26.42l22.16-11.69c50.32-19.43,106.4-14.38,158.39-4.71,25.22,4.69,50.03,11.47,74.48,19.08l-42.27-163.23,8.03.69,55.73,183.95c-37.09-5.75-74.36-11.04-111.75-14.71-26.6-2.61-53.17-4.19-79.85-5.36-17.71-.78-48.77-4.52-64.76,1.69-9.39,3.65-14.63,11.76-24.49,15.06-11.47,3.85-27.77,3.92-39.07-.57-8.67-3.45-13.98-10.98-23.05-14.49-13.81-5.34-34.49-2.76-49.29-2.33-56.58,1.64-113.04,7-169.06,14.79-12.36,1.72-24.7,3.84-37,5.94l55.85-183.99,7.55-.34-42.94,162.91c25.5-8,51.47-14.99,77.83-19.75,52.61-9.5,119.24-15.02,167.58,11.61,3.49,1.92,6.6,4.59,10.29,6.13-10.24-11.45-24.82-19.05-39.25-24.09-42.44-14.83-90.38-11.61-134.13-4.56-22.8,3.67-45.44,8.76-67.55,15.28l38.88-165.49,10.43-1.77-33.88,149.86c74.69-18.62,167.44-31.46,231.54,20.75.3-1.26-.7-1.59-1.33-2.34-1.95-2.33-6.6-6.3-9.08-8.34-45.07-37.05-115.85-38.07-171.01-30.01-11.85,1.73-23.62,4.2-35.34,6.58l34.36-160.42c8.92-2.67,18.06-5.05,27.26-6.62,10.43-1.78,21.94-3.1,32.34-3.56h15.44ZM293.96,318.34v-129.45c0-8.22-21.19-26.33-27.98-30.98-36.53-25.07-86.65-31.56-129.99-25.46-8.14,1.15-16.23,3.23-24.2,5.18l-27.24,133.87c50.75-11.37,106.07-14.01,154.82,6.58,21.25,8.98,39.91,22.51,54.58,40.26ZM304.7,187.55v130.79l5.02-6.03c41.56-45.05,108.42-54.77,167.04-47.41,11.79,1.48,23.64,5.02,35.06,6.54,1.03.14,1.85.49,1.63-.95l-27.31-132.84c-49.67-13.24-109.94-9.59-153.19,19.85-7.3,4.97-26.82,21.49-28.25,30.05Z"/>
  <path class="st0" d="M159.73,120.98c-10.4.45-21.91,1.77-32.34,3.56-9.21,1.57-18.34,3.94-27.26,6.62l-34.36,160.42c11.72-2.38,23.49-4.85,35.34-6.58,55.16-8.06,125.94-7.04,171.01,30.01,2.49,2.04,7.13,6.01,9.08,8.34.63.75,1.63,1.09,1.33,2.34-64.09-52.21-156.85-39.36-231.54-20.75l33.88-149.86-10.43,1.77-38.88,165.49c22.12-6.52,44.75-11.6,67.55-15.28,43.75-7.05,91.7-10.27,134.13,4.56,14.42,5.04,29.01,12.64,39.25,24.09-3.69-1.54-6.8-4.21-10.29-6.13-48.34-26.63-114.97-21.11-167.58-11.61-26.36,4.76-52.33,11.74-77.83,19.75l42.94-162.91-7.55.34L.35,359.16c12.3-2.09,24.64-4.22,37-5.94,56.01-7.78,112.48-13.14,169.06-14.79,14.8-.43,35.48-3.02,49.29,2.33,9.07,3.51,14.37,11.04,23.05,14.49,11.3,4.49,27.6,4.42,39.07.57,9.86-3.3,15.09-11.41,24.49-15.06,15.99-6.21,47.05-2.47,64.76-1.69,26.68,1.17,53.26,2.76,79.85,5.36,37.39,3.67,74.66,8.96,111.75,14.71l-55.73-183.95-8.03-.69,42.27,163.23c-24.44-7.61-49.25-14.39-74.48-19.08-52-9.67-108.08-14.73-158.39,4.71l-22.16,11.69c12.74-13.39,30.62-21.47,48.32-26.42,43.23-12.08,88.68-7.72,132.34-.12,20.12,3.5,39.99,8.28,59.6,13.84l-38.28-165.88-10.7-1.37,33.55,149.85c-13.53-3.3-27.08-6.68-40.81-9.15-55.58-10.01-117.15-12.56-168.36,14.39l-19.68,12.82c18.56-20.34,46.55-31.48,73.15-37.13,47.06-9.99,95.05-3.83,141.61,5.69l-34.32-160.47c-16.51-4.55-33.44-8.1-50.59-9.45-2.44-.19-5.62-.57-7.71-.68h159.06v239.5H-.67V120.98h160.4Z"/>
  <path class="st0" d="M422.15,120.98l-15.69,1.42c-40.97,5.22-81.47,21.44-107.79,54.11-.76-1.95-2.61-4.17-4.02-5.7-25.59-27.94-61.33-42.18-98.42-47.73l-21.06-2.09h246.98Z"/>
  <path class="st0" d="M293.96,318.34c-14.67-17.75-33.33-31.28-54.58-40.26-48.74-20.59-104.06-17.95-154.82-6.58l27.24-133.87c7.97-1.95,16.06-4.04,24.2-5.18,43.34-6.1,93.46.39,129.99,25.46,6.78,4.65,27.98,22.76,27.98,30.98v129.45Z"/>
  <path class="st0" d="M304.7,187.55c1.43-8.55,20.94-25.07,28.25-30.05,43.25-29.44,103.52-33.09,153.19-19.85l27.31,132.84c.22,1.44-.59,1.09-1.63.95-11.42-1.52-23.27-5.06-35.06-6.54-58.62-7.36-125.48,2.35-167.04,47.41l-5.02,6.03v-130.79Z"/>
</svg>