<?xml version="1.0" encoding="UTF-8"?>
<svg id="Layer_1" xmlns="http://www.w3.org/2000/svg" version="1.1" viewBox="0 0 172.32 178.95">
  <!-- Generator: Adobe Illustrator 29.7.1, SVG Export Plug-In . SVG Version: 2.1.1 Build 8)  -->
  <defs>
    <style>
      .st0 {
        fill: #231f20;
      }
    </style>
  </defs>
  <g id="b">
    <g id="c">
      <g id="d">
        <path class="st0" d="M92.71,105.42c-1.36,0-2.72-.13-4.05-.4-5.68-1.12-10.66-4.49-13.81-9.34-3.25-4.93-4.45-10.93-3.37-16.73.99-5.77,4.23-10.91,9-14.3,4.67-3.34,10.51-4.6,16.15-3.51,11.67,2.28,19.38,14,17.21,26-.99,5.77-4.23,10.91-9,14.3-3.53,2.57-7.77,3.96-12.13,3.98ZM92.63,65.42c-3.45,0-6.81,1.08-9.62,3.08-3.8,2.68-6.37,6.76-7.15,11.34-.87,4.59.08,9.35,2.65,13.25,2.48,3.86,6.43,6.53,10.93,7.4,4.48.9,9.12-.11,12.83-2.77,3.79-2.68,6.36-6.76,7.15-11.34,1.73-9.63-4.38-18.89-13.65-20.63-1.03-.23-2.08-.35-3.14-.36,0,0,0,.03,0,.03Z"/>
        <path class="st0" d="M92.77,178.95c-5.81,0-11.61-.57-17.31-1.67C25.31,167.51-7.83,117.28,1.61,65.36,6.25,39.44,21.3,16.54,43.27,2c2.81-1.86,6.26-2.46,9.53-1.66,3.26.77,6.07,2.83,7.8,5.7,3.72,6.08,2,14.01-3.9,18-16.03,10.57-27.02,27.26-30.4,46.17-3.37,18.2.45,37.01,10.66,52.45,9.86,15.15,25.45,25.65,43.19,29.09,27,5.27,54.11-6.72,69.12-30.57,3.57-5.8,11.16-7.61,16.96-4.05.13.08.27.17.4.26,5.82,4.07,7.43,11.98,3.66,18-17.36,27.56-46.52,43.56-77.52,43.56h0ZM49.95,4.62c-1.53,0-3.02.45-4.29,1.29C24.75,19.75,10.42,41.55,6,66.22c-9,49.46,22.57,97.23,70.34,106.53,35.23,6.88,70.66-8.78,90.23-39.87,2.43-3.88,1.4-8.99-2.35-11.62-3.61-2.45-8.53-1.51-10.99,2.1-.07.11-.14.22-.21.33-16,25.43-44.91,38.22-73.68,32.58-18.91-3.69-35.52-14.9-46-31.07-10.89-16.45-14.96-36.5-11.34-55.9,3.59-20.15,15.3-37.95,32.4-49.21,3.77-2.58,4.88-7.64,2.53-11.56-1.11-1.84-2.91-3.16-5-3.66-.64-.18-1.31-.26-1.98-.25h0Z"/>
        <path class="st0" d="M96.38,141.38c-2.96,0-5.83-1.06-8.07-3-2.57-2.26-4.15-5.43-4.41-8.84-.68-7.03,4.41-13.29,11.43-14.06,5.4-.47,10.58-2.37,15-5.51,6.94-4.93,11.65-12.41,13.11-20.8,1.58-8.44-.19-17.16-4.92-24.32-4.58-7.07-11.83-11.98-20.1-13.59-8.2-1.61-16.69.24-23.49,5.09-5.25,3.69-9.26,8.89-11.5,14.91-2.32,6.48-9.46,9.84-15.94,7.52-.11-.04-.22-.08-.32-.12-6.55-2.79-9.71-10.27-7.14-16.91,4.06-10.84,11.29-20.21,20.74-26.9,12.95-9.21,29.25-12.35,44.7-8.63,13.9,3.38,25.99,11.93,33.8,23.91,17.57,26.63,10.93,63.08-14.77,81.23-7.95,5.67-17.27,9.13-27,10-.38,0-.73.02-1.12.02h0ZM92.57,46.03c11.98.02,23.14,6.1,29.66,16.15,5.39,8.18,7.4,18.14,5.59,27.77-1.68,9.58-7.07,18.12-15,23.76-5.03,3.57-10.91,5.75-17.05,6.31-4.52.51-7.79,4.54-7.38,9.06.17,2.18,1.16,4.21,2.78,5.67,1.62,1.43,3.76,2.13,5.92,1.94,8.96-.82,17.55-3.99,24.9-9.19,23.67-16.7,29.78-50.26,13.61-74.79-7.2-11.02-18.33-18.89-31.12-22-14.22-3.44-29.23-.55-41.16,7.92-8.71,6.16-15.37,14.81-19.09,24.81-1.64,4.26.39,9.05,4.59,10.84,4.11,1.62,8.76-.39,10.38-4.5.04-.09.07-.18.1-.27,2.56-6.86,7.14-12.79,13.13-17,5.88-4.19,12.92-6.46,20.14-6.48h0Z"/>
      </g>
    </g>
  </g>
</svg>