<?xml version="1.0" encoding="UTF-8"?><svg xmlns="http://www.w3.org/2000/svg" viewBox="0 0 869.55 178.95"><defs><style>.e,.f{fill:#231f20;}.f{fill-rule:evenodd;}</style></defs><g id="a"/><g id="b"><g id="c"><g id="d"><path class="e" d="M92.71,105.42c-1.36,0-2.72-.13-4.05-.4-5.68-1.12-10.66-4.49-13.81-9.34-3.25-4.93-4.45-10.93-3.37-16.73,.99-5.77,4.23-10.91,9-14.3,4.67-3.34,10.51-4.6,16.15-3.51,11.67,2.28,19.38,14,17.21,26-.99,5.77-4.23,10.91-9,14.3-3.53,2.57-7.77,3.96-12.13,3.98Zm-.08-40c-3.45,0-6.81,1.08-9.62,3.08-3.8,2.68-6.37,6.76-7.15,11.34-.87,4.59,.08,9.35,2.65,13.25,2.48,3.86,6.43,6.53,10.93,7.4,4.48,.9,9.12-.11,12.83-2.77,3.79-2.68,6.36-6.76,7.15-11.34,1.73-9.63-4.38-18.89-13.65-20.63-1.03-.23-2.08-.35-3.14-.36v.03Z"/><path class="e" d="M92.77,178.95c-5.81,0-11.61-.57-17.31-1.67C25.31,167.51-7.83,117.28,1.61,65.36,6.25,39.44,21.3,16.54,43.27,2c2.81-1.86,6.26-2.46,9.53-1.66,3.26,.77,6.07,2.83,7.8,5.7,3.72,6.08,2,14.01-3.9,18-16.03,10.57-27.02,27.26-30.4,46.17-3.37,18.2,.45,37.01,10.66,52.45,9.86,15.15,25.45,25.65,43.19,29.09,27,5.27,54.11-6.72,69.12-30.57,3.57-5.8,11.16-7.61,16.96-4.05,.13,.08,.27,.17,.4,.26,5.82,4.07,7.43,11.98,3.66,18-17.36,27.56-46.52,43.56-77.52,43.56ZM49.95,4.62c-1.53,0-3.02,.45-4.29,1.29C24.75,19.75,10.42,41.55,6,66.22c-9,49.46,22.57,97.23,70.34,106.53,35.23,6.88,70.66-8.78,90.23-39.87,2.43-3.88,1.4-8.99-2.35-11.62-3.61-2.45-8.53-1.51-10.99,2.1-.07,.11-.14,.22-.21,.33-16,25.43-44.91,38.22-73.68,32.58-18.91-3.69-35.52-14.9-46-31.07-10.89-16.45-14.96-36.5-11.34-55.9,3.59-20.15,15.3-37.95,32.4-49.21,3.77-2.58,4.88-7.64,2.53-11.56-1.11-1.84-2.91-3.16-5-3.66-.64-.18-1.31-.26-1.98-.25Z"/><path class="e" d="M96.38,141.38c-2.96,0-5.83-1.06-8.07-3-2.57-2.26-4.15-5.43-4.41-8.84-.68-7.03,4.41-13.29,11.43-14.06,5.4-.47,10.58-2.37,15-5.51,6.94-4.93,11.65-12.41,13.11-20.8,1.58-8.44-.19-17.16-4.92-24.32-4.58-7.07-11.83-11.98-20.1-13.59-8.2-1.61-16.69,.24-23.49,5.09-5.25,3.69-9.26,8.89-11.5,14.91-2.32,6.48-9.46,9.84-15.94,7.52-.11-.04-.22-.08-.32-.12-6.55-2.79-9.71-10.27-7.14-16.91,4.06-10.84,11.29-20.21,20.74-26.9,12.95-9.21,29.25-12.35,44.7-8.63,13.9,3.38,25.99,11.93,33.8,23.91,17.57,26.63,10.93,63.08-14.77,81.23-7.95,5.67-17.27,9.13-27,10-.38-.01-.73,.02-1.12,.02Zm-3.81-95.35c11.98,.02,23.14,6.1,29.66,16.15,5.39,8.18,7.4,18.14,5.59,27.77-1.68,9.58-7.07,18.12-15,23.76-5.03,3.57-10.91,5.75-17.05,6.31-4.52,.51-7.79,4.54-7.38,9.06,.17,2.18,1.16,4.21,2.78,5.67,1.62,1.43,3.76,2.13,5.92,1.94,8.96-.82,17.55-3.99,24.9-9.19,23.67-16.7,29.78-50.26,13.61-74.79-7.2-11.02-18.33-18.89-31.12-22-14.22-3.44-29.23-.55-41.16,7.92-8.71,6.16-15.37,14.81-19.09,24.81-1.64,4.26,.39,9.05,4.59,10.84,4.11,1.62,8.76-.39,10.38-4.5,.04-.09,.07-.18,.1-.27,2.56-6.86,7.14-12.79,13.13-17,5.88-4.19,12.92-6.46,20.14-6.48Z"/><path class="f" d="M229.77,65.98h24.54c3.47,.14,6.17,3.06,6.03,6.54-.13,3.28-2.76,5.9-6.03,6.03h-24.54v91c.15,4.03-3,7.42-7.02,7.57-4.03,.15-7.42-3-7.57-7.02,0-.18,0-.36,0-.54V78.55h-21.63c-3.47-.14-6.17-3.06-6.03-6.54,.13-3.28,2.76-5.9,6.03-6.03h21.62V30.75c0-4.03,3.27-7.3,7.3-7.3s7.3,3.27,7.3,7.3v35.23Z"/><path class="f" d="M364.87,119.29c0-32.18-21.14-56.34-51-56.34-32.07,0-54.2,26.91-54.2,57.6s20.91,57.59,55.66,57.59c19.21,0,35-9.3,43.24-21.1,.95-1.32,1.46-2.9,1.46-4.53,.16-3.31-2.39-6.12-5.7-6.28-.12,0-.24,0-.37,0-2.68,0-4.38,1.76-5.6,3.27-8.76,10.81-19.45,15.84-33.06,15.84-25.52,0-40.08-19.6-40.83-39.73h84.3c3.4-.12,6.09-2.91,6.1-6.31Zm-89.9-6.29c1.93-20.62,17.51-37.47,38.89-37.47s35.74,16.33,37.67,37.47h-76.56Z"/><path class="f" d="M476.58,114.51v55.07c.15,4.03-3,7.42-7.03,7.56-4.03,.15-7.42-3-7.56-7.03,0-.18,0-.36,0-.54v-56.33c0-20.87-15.31-36.71-35.23-36.71s-35.23,15.84-35.23,36.71v56.33c0,4.03-3.27,7.3-7.3,7.3s-7.3-3.27-7.3-7.3v-55.07c0-28.91,21.62-51.56,49.83-51.56s49.82,22.62,49.82,51.56Z"/><path class="f" d="M548.11,62.95c-30.85,0-55.66,22.62-55.66,57.6,0,30.69,19.69,57.59,55.15,57.59,18.23,0,32.32-8.28,41.07-21.63v13.07c0,4.03,3.25,7.31,7.29,7.31,4.03,0,7.31-3.25,7.31-7.29v-48.81c0-34.7-23.83-57.85-55.16-57.85Zm0,102.1c-25,0-41.3-19.11-41.3-44.5s16.53-44.5,41.3-44.5,40.59,18.86,40.59,44.5c0,24.13-17.03,44.5-40.59,44.5Z"/><path class="f" d="M723.63,114.51v55.07c.15,4.03-3,7.42-7.03,7.56-4.03,.15-7.42-3-7.56-7.03,0-.18,0-.36,0-.54v-56.33c0-20.87-15.31-36.71-35.23-36.71s-35.23,15.84-35.23,36.71v56.33c.15,4.03-3,7.42-7.03,7.56-4.03,.15-7.42-3-7.56-7.03,0-.18,0-.36,0-.54v-55.07c0-28.91,21.62-51.56,49.82-51.56s49.82,22.62,49.82,51.56Z"/><path class="f" d="M773.55,65.98h24.54c3.47,.14,6.17,3.06,6.03,6.54-.13,3.28-2.76,5.9-6.03,6.03h-24.54v91c0,4.03-3.25,7.31-7.29,7.31-4.03,0-7.31-3.25-7.31-7.29V78.55h-21.62c-3.47-.14-6.17-3.06-6.03-6.54,.13-3.28,2.76-5.9,6.03-6.03h21.62V30.75c0-4.03,3.25-7.31,7.29-7.31,4.03,0,7.31,3.25,7.31,7.29v35.26Z"/><path class="e" d="M817.2,123.01c.06-1.79,1.56-3.2,3.36-3.14,1.79,.06,3.2,1.56,3.14,3.36-.06,1.75-1.49,3.14-3.25,3.14-1.82-.02-3.27-1.51-3.25-3.33v-.03Zm52,0c.04,1.42-1.07,2.61-2.5,2.66h-33.21c-1.42,0-2.57-1.17-2.56-2.6v-.06c-.05-1.41,1.04-2.59,2.45-2.65,.04,0,.07,0,.11,0h33.18c1.44,.02,2.58,1.2,2.56,2.64h-.03Z"/><path class="e" d="M866.67,70.66c1.46,0,2.65,1.19,2.65,2.65s-1.19,2.65-2.65,2.65h-19.06c-6.83-.04-12.39,5.47-12.43,12.29,0,.17,0,.33,0,.5,0,7.22,5.36,12.76,12.42,12.76h19.06c1.46,0,2.65,1.19,2.65,2.65s-1.19,2.65-2.65,2.65h-18.62c-9.76,0-17.42-7.82-17.42-18s7.66-18,17.42-18h18.62v-.15Z"/><path class="e" d="M837.77,23.75c.44-.33,.97-.51,1.52-.52,1.26,.09,2.21,1.19,2.12,2.45,0,.04,0,.08-.01,.11-.02,.74-.39,1.43-1,1.85-3.57,2.77-5.57,7.1-5.36,11.61,0,8.31,6.73,15.04,15.04,15.04s15.04-6.73,15.04-15.04h0c.21-4.51-1.78-8.84-5.35-11.61-.61-.42-.98-1.11-1-1.85-.14-1.27,.77-2.41,2.04-2.55,.02,0,.05,0,.07,0,.55,0,1.08,.19,1.52,.52,3.81,2.65,7.15,8.26,7.15,15.5,0,11.53-8.34,20.16-19.48,20.16s-19.5-8.66-19.5-20.16c.07-7.24,3.37-12.85,7.2-15.5Z"/></g></g></g></svg>