<?xml version="1.0" encoding="UTF-8"?>
<svg id="Layer_1" xmlns="http://www.w3.org/2000/svg" version="1.1" viewBox="0 0 172.32 178.95">
  <!-- Generator: Adobe Illustrator 30.3.0, SVG Export Plug-In . SVG Version: 2.1.3 Build 182)  -->
  <defs>
    <style>
      .st0 {
        fill: #237fb3;
      }
    </style>
  </defs>
  <g id="b">
    <g id="c">
      <g id="d">
        <path class="st0" d="M92.71,105.42c-1.36,0-2.72-.13-4.05-.4-5.68-1.12-10.66-4.49-13.81-9.34-3.25-4.93-4.45-10.93-3.37-16.73.99-5.77,4.23-10.91,9-14.3,4.67-3.34,10.51-4.6,16.15-3.51,11.67,2.28,19.38,14,17.21,26-.99,5.77-4.23,10.91-9,14.3-3.53,2.57-7.77,3.96-12.13,3.98Z"/>
        <path class="st0" d="M92.77,178.95c-5.81,0-11.61-.57-17.31-1.67C25.31,167.51-7.83,117.28,1.61,65.36,6.25,39.44,21.3,16.54,43.27,2c2.81-1.86,6.26-2.46,9.53-1.66,3.26.77,6.07,2.83,7.8,5.7,3.72,6.08,2,14.01-3.9,18-16.03,10.57-27.02,27.26-30.4,46.17-3.37,18.2.45,37.01,10.66,52.45,9.86,15.15,25.45,25.65,43.19,29.09,27,5.27,54.11-6.72,69.12-30.57,3.57-5.8,11.16-7.61,16.96-4.05.13.08.27.17.4.26,5.82,4.07,7.43,11.98,3.66,18-17.36,27.56-46.52,43.56-77.52,43.56h0Z"/>
        <path class="st0" d="M96.38,141.38c-2.96,0-5.83-1.06-8.07-3-2.57-2.26-4.15-5.43-4.41-8.84-.68-7.03,4.41-13.29,11.43-14.06,5.4-.47,10.58-2.37,15-5.51,6.94-4.93,11.65-12.41,13.11-20.8,1.58-8.44-.19-17.16-4.92-24.32-4.58-7.07-11.83-11.98-20.1-13.59-8.2-1.61-16.69.24-23.49,5.09-5.25,3.69-9.26,8.89-11.5,14.91-2.32,6.48-9.46,9.84-15.94,7.52-.11-.04-.22-.08-.32-.12-6.55-2.79-9.71-10.27-7.14-16.91,4.06-10.84,11.29-20.21,20.74-26.9,12.95-9.21,29.25-12.35,44.7-8.63,13.9,3.38,25.99,11.93,33.8,23.91,17.57,26.63,10.93,63.08-14.77,81.23-7.95,5.67-17.27,9.13-27,10-.38,0-.73.02-1.12.02h0ZM59.2,69.78"/>
      </g>
    </g>
  </g>
</svg>