<?xml version="1.0" encoding="UTF-8"?>
<svg id="Layer_1" xmlns="http://www.w3.org/2000/svg" version="1.1" viewBox="0 0 163.28 114.3">
  <!-- Generator: Adobe Illustrator 29.8.5, SVG Export Plug-In . SVG Version: 2.1.1 Build 2)  -->
  <defs>
    <style>
      .st0 {
        fill: #fff;
      }

      .st1 {
        fill: red;
      }
    </style>
  </defs>
  <path class="st1" d="M159.86,17.85c-1.88-7.03-7.41-12.55-14.44-14.44C132.7,0,81.64,0,81.64,0c0,0-51.06,0-63.79,3.41-7.03,1.88-12.55,7.41-14.44,14.44C0,30.58,0,57.15,0,57.15c0,0,0,26.57,3.41,39.3,1.88,7.03,7.41,12.55,14.44,14.44,12.73,3.41,63.79,3.41,63.79,3.41,0,0,51.06,0,63.79-3.41,7.03-1.88,12.55-7.41,14.44-14.44,3.41-12.73,3.41-39.3,3.41-39.3,0,0-.01-26.57-3.41-39.3Z"/>
  <path class="st0" d="M65.3,81.64l42.42-24.49-42.42-24.49v48.98Z"/>
</svg>